<?xml version="1.0" encoding="UTF-8" standalone="no"?>
<!-- Generator: Gravit.io -->
<svg xmlns="http://www.w3.org/2000/svg" xmlns:xlink="http://www.w3.org/1999/xlink" style="isolation:isolate" viewBox="-312 -421 1125 1028" width="1125pt" height="1028pt"><defs><clipPath id="_clipPath_dYIIgMlLJv48zPlxUfyC6RbnaXvi0RTf"><rect x="-312" y="-421" width="1125" height="1028"/></clipPath></defs><g clip-path="url(#_clipPath_dYIIgMlLJv48zPlxUfyC6RbnaXvi0RTf)"><g><g><g><path d=" M 87.778 471.604 L 38.058 471.604 C 35.125 471.604 32.747 469.226 32.747 466.293 L 32.747 140.485 C 32.747 137.552 35.125 135.174 38.058 135.174 L 87.778 135.174 C 90.711 135.174 93.089 137.552 93.089 140.485 L 93.089 466.293 C 93.09 469.225 90.712 471.604 87.778 471.604 Z " fill="rgb(151,93,80)"/><path d=" M 464.903 471.604 L 415.183 471.604 C 412.25 471.604 409.872 469.226 409.872 466.293 L 409.872 140.485 C 409.872 137.552 412.25 135.174 415.183 135.174 L 464.903 135.174 C 467.836 135.174 470.214 137.552 470.214 140.485 L 470.214 466.293 C 470.214 469.225 467.836 471.604 464.903 471.604 Z " fill="rgb(151,93,80)"/><path d=" M 485.885 471.92 L 17.076 471.92 C 9.059 471.92 2.5 465.362 2.5 457.344 L 2.5 362.398 C 2.5 354.381 9.059 347.822 17.076 347.822 L 485.886 347.822 C 493.903 347.822 500.462 354.381 500.462 362.398 L 500.462 457.344 C 500.461 465.362 493.902 471.92 485.885 471.92 Z " fill="rgb(151,93,80)"/></g><path d=" M 500.457 362.402 L 500.457 457.347 C 500.457 465.364 493.903 471.918 485.886 471.918 L 17.075 471.918 C 9.058 471.918 2.504 465.364 2.504 457.347 L 2.504 426.392 L 450.46 426.392 C 458.477 426.392 465.041 419.828 465.041 411.811 L 465.041 347.821 L 485.887 347.821 C 493.903 347.821 500.457 354.386 500.457 362.402 Z " fill="rgb(127,68,59)"/><path d=" M 485.885 316.753 L 17.076 316.753 C 9.059 316.753 2.5 310.195 2.5 302.179 L 2.5 207.232 C 2.5 199.215 9.059 192.656 17.076 192.656 L 485.886 192.656 C 493.903 192.656 500.462 199.215 500.462 207.232 L 500.462 302.178 C 500.461 310.195 493.902 316.753 485.885 316.753 Z " fill="rgb(151,93,80)"/><path d=" M 500.457 207.237 L 500.457 302.182 C 500.457 310.199 493.903 316.753 485.886 316.753 L 17.075 316.753 C 9.058 316.753 2.504 310.199 2.504 302.182 L 2.504 271.227 L 450.46 271.227 C 458.477 271.227 465.041 264.663 465.041 256.646 L 465.041 192.655 L 485.887 192.655 C 493.903 192.656 500.457 199.219 500.457 207.237 Z " fill="rgb(127,68,59)"/><path d=" M 484.466 323.68 C 496.615 323.68 506.5 313.795 506.5 301.646 L 506.5 206.878 C 506.5 194.728 496.615 184.844 484.466 184.844 L 476.309 184.844 L 476.309 140.254 C 476.309 133.203 470.573 127.467 463.521 127.467 L 413.894 127.467 C 406.843 127.467 401.106 133.203 401.106 140.254 L 401.106 184.842 L 162.019 184.842 C 157.885 184.842 154.533 188.194 154.533 192.328 C 154.533 196.462 157.885 199.814 162.019 199.814 L 484.466 199.814 C 488.36 199.814 491.528 202.982 491.528 206.876 L 491.528 301.644 C 491.528 305.538 488.36 308.706 484.466 308.706 L 16.534 308.706 C 12.64 308.706 9.472 305.538 9.472 301.644 L 9.472 206.876 C 9.472 202.982 12.64 199.814 16.534 199.814 L 118.766 199.814 C 122.9 199.814 126.252 196.462 126.252 192.328 C 126.252 188.194 122.9 184.842 118.766 184.842 L 99.892 184.842 L 99.892 140.254 C 99.892 133.203 94.156 127.467 87.104 127.467 L 37.477 127.467 C 30.426 127.467 24.69 133.203 24.69 140.254 L 24.69 184.842 L 16.534 184.842 C 4.385 184.842 -5.5 194.728 -5.5 206.877 L -5.5 301.645 C -5.5 313.795 4.385 323.679 16.534 323.679 L 24.69 323.679 L 24.69 339.718 L 16.534 339.718 C 4.385 339.719 -5.5 349.604 -5.5 361.753 L -5.5 456.521 C -5.5 468.671 4.385 478.555 16.534 478.555 L 484.466 478.555 C 496.615 478.555 506.5 468.67 506.5 456.521 L 506.5 361.753 C 506.5 349.603 496.615 339.719 484.466 339.719 L 476.309 339.719 L 476.309 323.68 L 484.466 323.68 Z  M 461.338 184.842 L 416.08 184.842 L 416.08 142.44 L 461.338 142.44 L 461.338 184.842 L 461.338 184.842 Z  M 39.662 142.44 L 84.92 142.44 L 84.92 184.843 L 39.662 184.843 L 39.662 142.44 Z  M 39.662 323.68 L 84.92 323.68 L 84.92 339.719 L 39.662 339.719 L 39.662 323.68 Z  M 491.528 361.753 L 491.528 456.521 C 491.528 460.415 488.36 463.583 484.466 463.583 L 16.534 463.583 C 12.64 463.583 9.472 460.415 9.472 456.521 L 9.472 361.753 C 9.472 357.859 12.64 354.691 16.534 354.691 L 342.347 354.691 C 346.482 354.691 349.833 351.339 349.833 347.205 C 349.833 343.071 346.482 339.719 342.347 339.719 L 99.892 339.719 L 99.892 323.68 L 401.108 323.68 L 401.108 339.719 L 380.942 339.719 C 376.807 339.719 373.456 343.071 373.456 347.205 C 373.456 351.339 376.807 354.691 380.942 354.691 L 484.466 354.691 C 488.36 354.691 491.528 357.858 491.528 361.753 Z  M 416.08 339.719 L 416.08 323.68 L 461.338 323.68 L 461.338 339.719 L 416.08 339.719 Z " fill="rgb(0,0,0)"/><circle vector-effect="non-scaling-stroke" cx="62.291" cy="254.26161735782668" r="8.569000000000003" fill="rgb(0,0,0)"/><circle vector-effect="non-scaling-stroke" cx="62.291" cy="409.1306173578267" r="8.569000000000003" fill="rgb(0,0,0)"/><circle vector-effect="non-scaling-stroke" cx="438.71" cy="254.26161735782668" r="8.569000000000017" fill="rgb(0,0,0)"/><circle vector-effect="non-scaling-stroke" cx="438.71" cy="409.1306173578267" r="8.569000000000017" fill="rgb(0,0,0)"/></g><g><path d=" M 155.804 89.511 C 136.526 67.603 117.248 44.82 104.979 17.654 C 92.711 -11.264 89.206 -44.563 95.34 -76.109 C 101.474 -107.656 115.494 -137.45 135.65 -162.863 C 133.898 -140.955 141.784 -118.171 156.681 -101.522 C 147.918 -143.584 161.939 -189.151 189.98 -222.45 C 218.021 -255.749 256.579 -277.658 296.888 -292.555 C 276.733 -271.524 274.104 -238.225 281.991 -210.183 C 289.878 -182.141 306.528 -157.605 321.424 -132.192 C 336.321 -106.78 350.342 -80.491 351.219 -51.573 C 359.105 -66.47 367.869 -81.368 373.126 -98.017 C 378.384 -114.667 381.013 -132.192 376.632 -148.842 C 392.405 -129.564 401.168 -110.286 405.55 -85.749 C 409.931 -61.212 409.055 -35.8 406.426 -11.264 C 402.921 15.902 395.911 43.943 381.014 66.727 C 363.488 93.892 335.446 113.17 304.776 123.685 C 250.444 133.325 196.99 125.439 155.804 89.511 Z " fill="rgb(243,112,90)"/><path d=" M 222.403 121.933 C 294.259 149.975 365.239 64.974 325.806 -0.748 C 325.806 -1.625 324.929 -1.625 324.929 -2.5 C 328.434 33.428 319.671 59.716 303.021 74.614 C 311.785 53.583 305.65 29.046 295.135 8.015 C 284.619 -12.139 269.722 -30.542 258.33 -49.82 C 246.938 -69.975 238.176 -92.759 243.433 -115.543 C 222.402 -99.769 207.506 -76.109 201.371 -50.697 C 195.237 -25.285 198.742 2.757 210.134 26.417 C 196.99 16.778 187.351 1.005 186.474 -15.645 C 172.453 1.005 163.691 22.912 164.567 44.82 C 164.568 78.995 191.732 109.665 222.403 121.933 Z " fill="rgb(255,209,92)"/></g></g></g></svg>